<svg width="1024" height="1024" viewBox="40 0 818 898" fill="none" xmlns="http://www.w3.org/2000/svg">
<g filter="url(#filter0_n_48_129)">
<g filter="url(#filter1_i_48_129)">
<path d="M189.529 779.902H708.185V824.717C708.185 842.012 708.185 850.659 702.812 856.032C697.44 861.405 688.792 861.405 671.498 861.405H226.217C208.922 861.405 200.274 861.405 194.902 856.032C189.529 850.659 189.529 842.012 189.529 824.717V779.902Z" fill="url(#paint0_linear_48_129)"/>
</g>
<rect x="151" y="36" width="595.885" height="753.38" rx="56.2545" fill="url(#paint1_linear_48_129)"/>
<g filter="url(#filter2_f_48_129)">
<rect x="173.731" y="78.2153" width="550.422" height="668.95" rx="44.0252" fill="url(#paint2_linear_48_129)"/>
<rect x="174.954" y="79.4383" width="547.976" height="666.504" rx="42.8023" stroke="url(#paint3_linear_48_129)" stroke-width="2.44585"/>
</g>
<g filter="url(#filter3_f_48_129)">
<rect x="204.581" y="109.065" width="488.723" height="378.314" rx="34.2418" fill="#242622"/>
<rect x="204.581" y="109.065" width="488.723" height="378.314" rx="34.2418" fill="black" fill-opacity="0.2"/>
<rect x="205.804" y="110.288" width="486.277" height="375.868" rx="33.0189" stroke="url(#paint4_linear_48_129)" stroke-width="2.44585"/>
</g>
<mask id="mask0_48_129" style="mask-type:alpha" maskUnits="userSpaceOnUse" x="224" y="123" width="450" height="345">
<path d="M230.158 165.722C231.507 153.147 232.181 146.859 237.483 141.381C242.784 135.902 248.841 135.05 260.954 133.347C291.111 129.106 349.196 123.678 448.942 123.678C553.631 123.678 610.325 129 638.827 133.221C649.696 134.831 655.131 135.636 660.377 141.084C665.623 146.532 666.258 152.321 667.529 163.899C670.324 189.377 673.82 233.658 673.82 295.799C673.82 357.939 670.324 402.221 667.529 427.698C666.258 439.277 665.623 445.066 660.377 450.513C655.131 455.961 649.696 456.766 638.827 458.376C610.325 462.597 553.631 467.919 448.942 467.919C349.196 467.919 291.111 462.491 260.954 458.25C248.841 456.547 242.784 455.696 237.483 450.217C232.181 444.738 231.507 438.45 230.158 425.875C227.399 400.134 224.065 356.482 224.065 295.799C224.065 235.115 227.399 191.463 230.158 165.722Z" fill="url(#paint5_linear_48_129)"/>
</mask>
<g mask="url(#mask0_48_129)">
<path d="M230.158 165.722C231.507 153.147 232.181 146.859 237.483 141.381C242.784 135.902 248.841 135.05 260.954 133.347C291.111 129.106 349.196 123.678 448.942 123.678C553.631 123.678 610.325 129 638.827 133.221C649.696 134.831 655.131 135.636 660.377 141.084C665.623 146.532 666.258 152.321 667.529 163.899C670.324 189.377 673.82 233.658 673.82 295.799C673.82 357.939 670.324 402.221 667.529 427.698C666.258 439.277 665.623 445.066 660.377 450.513C655.131 455.961 649.696 456.766 638.827 458.376C610.325 462.597 553.631 467.919 448.942 467.919C349.196 467.919 291.111 462.491 260.954 458.25C248.841 456.547 242.784 455.696 237.483 450.217C232.181 444.738 231.507 438.45 230.158 425.875C227.399 400.134 224.065 356.482 224.065 295.799C224.065 235.115 227.399 191.463 230.158 165.722Z" fill="url(#paint6_radial_48_129)"/>
</g>
<g filter="url(#filter4_i_48_129)">
<rect x="225.688" y="617.272" width="77.9359" height="77.9359" rx="7.82671" fill="url(#paint7_linear_48_129)"/>
</g>
<g filter="url(#filter5_dd_48_129)">
<mask id="mask1_48_129" style="mask-type:alpha" maskUnits="userSpaceOnUse" x="237" y="628" width="55" height="56">
<circle cx="264.656" cy="656.24" r="27.2776" fill="#C4C4C4"/>
</mask>
<g mask="url(#mask1_48_129)">
<rect x="235.906" y="624.539" width="57.504" height="12.5329" fill="#4F9D37"/>
<rect x="235.905" y="637.072" width="57.504" height="9.58401" fill="#EBAA22"/>
<rect x="235.905" y="646.656" width="57.504" height="9.58401" fill="#E77614"/>
<rect x="235.905" y="656.24" width="57.504" height="9.58401" fill="#CF181D"/>
<rect x="235.905" y="665.824" width="57.504" height="9.58401" fill="#AE38AF"/>
<rect x="235.82" y="675.408" width="57.6725" height="11.6904" fill="#009DDC"/>
</g>
</g>
<g opacity="0.6" filter="url(#filter6_f_48_129)">
<ellipse cx="253.935" cy="645.13" rx="14.613" ry="4.39988" transform="rotate(-43.4578 253.935 645.13)" fill="white"/>
</g>
<mask id="path-18-outside-1_48_129" maskUnits="userSpaceOnUse" x="377.56" y="587.293" width="291" height="50" fill="black">
<rect fill="white" x="377.56" y="587.293" width="291" height="50"/>
<path d="M649.403 591.293C656.321 591.293 659.779 591.294 661.928 593.443C664.077 595.592 664.078 599.05 664.078 605.968V618.833C664.078 625.751 664.078 629.211 661.928 631.36C659.779 633.508 656.32 633.508 649.403 633.508H599.193C592.276 633.508 588.817 633.508 586.668 631.36C584.893 629.585 584.584 626.916 584.53 622.143H389.678C388.954 622.143 388.591 622.143 388.285 622.117C384.716 621.818 381.885 618.987 381.586 615.418C381.56 615.113 381.56 614.75 381.56 614.025C381.56 613.3 381.56 612.937 381.586 612.631C381.885 609.062 384.716 606.231 388.285 605.932C388.591 605.906 388.954 605.906 389.678 605.906H584.518C584.518 599.03 584.525 595.585 586.668 593.443C588.817 591.294 592.275 591.293 599.193 591.293H649.403Z"/>
</mask>
<path d="M649.403 591.293C656.321 591.293 659.779 591.294 661.928 593.443C664.077 595.592 664.078 599.05 664.078 605.968V618.833C664.078 625.751 664.078 629.211 661.928 631.36C659.779 633.508 656.32 633.508 649.403 633.508H599.193C592.276 633.508 588.817 633.508 586.668 631.36C584.893 629.585 584.584 626.916 584.53 622.143H389.678C388.954 622.143 388.591 622.143 388.285 622.117C384.716 621.818 381.885 618.987 381.586 615.418C381.56 615.113 381.56 614.75 381.56 614.025C381.56 613.3 381.56 612.937 381.586 612.631C381.885 609.062 384.716 606.231 388.285 605.932C388.591 605.906 388.954 605.906 389.678 605.906H584.518C584.518 599.03 584.525 595.585 586.668 593.443C588.817 591.294 592.275 591.293 599.193 591.293H649.403Z" fill="url(#paint8_linear_48_129)"/>
<path d="M649.403 591.293V587.624V591.293ZM661.928 593.443L664.523 590.848L664.523 590.848L661.928 593.443ZM664.078 605.968H667.747H664.078ZM661.928 631.36L664.522 633.954L664.523 633.954L661.928 631.36ZM649.403 633.508V637.177V633.508ZM599.193 633.508V637.177V633.508ZM586.668 631.36L584.074 633.954L584.074 633.954L586.668 631.36ZM584.53 622.143L588.199 622.101L588.158 618.474H584.53V622.143ZM389.678 622.143V625.812V622.143ZM388.285 622.117L387.978 625.773L387.979 625.773L388.285 622.117ZM381.586 615.418L377.93 615.724L377.93 615.725L381.586 615.418ZM381.56 614.025H377.892H381.56ZM381.586 612.631L377.93 612.325L377.93 612.325L381.586 612.631ZM388.285 605.932L387.979 602.276L387.978 602.276L388.285 605.932ZM389.678 605.906V602.238V605.906ZM584.518 605.906V609.575H588.187V605.907L584.518 605.906ZM586.668 593.443L584.074 590.848L584.073 590.848L586.668 593.443ZM599.193 591.293V587.624V591.293ZM649.403 591.293V594.962C652.966 594.962 655.268 594.97 656.965 595.198C658.556 595.412 659.055 595.757 659.334 596.037L661.928 593.443L664.523 590.848C662.653 588.979 660.348 588.249 657.943 587.926C655.644 587.617 652.758 587.624 649.403 587.624V591.293ZM661.928 593.443L659.334 596.037C659.614 596.316 659.959 596.815 660.173 598.406C660.401 600.103 660.409 602.406 660.409 605.968H664.078H667.747C667.747 602.613 667.754 599.727 667.445 597.428C667.122 595.023 666.392 592.718 664.523 590.848L661.928 593.443ZM664.078 605.968H660.409V618.833H664.078H667.747V605.968H664.078ZM664.078 618.833H660.409C660.409 622.396 660.401 624.699 660.173 626.396C659.959 627.987 659.614 628.486 659.334 628.765L661.928 631.36L664.523 633.954C666.392 632.084 667.122 629.779 667.445 627.374C667.754 625.074 667.747 622.189 667.747 618.833H664.078ZM661.928 631.36L659.334 628.765C659.055 629.044 658.557 629.39 656.965 629.604C655.268 629.832 652.966 629.839 649.403 629.839V633.508V637.177C652.758 637.177 655.643 637.185 657.943 636.876C660.347 636.553 662.653 635.824 664.522 633.954L661.928 631.36ZM649.403 633.508V629.839H599.193V633.508V637.177H649.403V633.508ZM599.193 633.508V629.839C595.631 629.839 593.328 629.832 591.631 629.604C590.04 629.39 589.541 629.044 589.262 628.765L586.668 631.36L584.074 633.954C585.944 635.824 588.249 636.553 590.654 636.876C592.953 637.185 595.838 637.177 599.193 637.177V633.508ZM586.668 631.36L589.262 628.765C589.021 628.524 588.754 628.141 588.547 627.136C588.319 626.031 588.225 624.487 588.199 622.101L584.53 622.143L580.861 622.184C580.888 624.571 580.976 626.748 581.36 628.615C581.765 630.582 582.539 632.42 584.074 633.954L586.668 631.36ZM584.53 622.143V618.474H389.678V622.143V625.812H584.53V622.143ZM389.678 622.143V618.474C388.877 618.474 388.705 618.471 388.591 618.461L388.285 622.117L387.979 625.773C388.476 625.815 389.03 625.812 389.678 625.812V622.143ZM388.285 622.117L388.591 618.461C386.807 618.312 385.391 616.896 385.242 615.112L381.586 615.418L377.93 615.725C378.378 621.077 382.626 625.325 387.978 625.773L388.285 622.117ZM381.586 615.418L385.242 615.112C385.232 614.998 385.229 614.826 385.229 614.025H381.56H377.892C377.892 614.673 377.888 615.227 377.93 615.724L381.586 615.418ZM381.56 614.025H385.229C385.229 613.223 385.232 613.051 385.242 612.937L381.586 612.631L377.93 612.325C377.888 612.822 377.892 613.376 377.892 614.025H381.56ZM381.586 612.631L385.242 612.937C385.391 611.153 386.807 609.737 388.591 609.588L388.285 605.932L387.978 602.276C382.626 602.725 378.378 606.972 377.93 612.325L381.586 612.631ZM388.285 605.932L388.591 609.588C388.705 609.578 388.877 609.575 389.678 609.575V605.906V602.238C389.03 602.238 388.476 602.234 387.979 602.276L388.285 605.932ZM389.678 605.906V609.575H584.518V605.906V602.238H389.678V605.906ZM584.518 605.906L588.187 605.907C588.187 602.366 588.197 600.078 588.425 598.392C588.639 596.812 588.983 596.316 589.262 596.037L586.668 593.443L584.073 590.848C582.21 592.712 581.479 595.009 581.154 597.407C580.843 599.698 580.85 602.57 580.85 605.906L584.518 605.906ZM586.668 593.443L589.262 596.037C589.541 595.757 590.04 595.412 591.631 595.198C593.328 594.97 595.631 594.962 599.193 594.962V591.293V587.624C595.838 587.624 592.953 587.617 590.653 587.926C588.248 588.249 585.943 588.979 584.074 590.848L586.668 593.443ZM599.193 591.293V594.962H649.403V591.293V587.624H599.193V591.293Z" fill="url(#paint9_linear_48_129)" mask="url(#path-18-outside-1_48_129)"/>
<g filter="url(#filter7_i_48_129)">
<path d="M584.518 604.282C584.518 598.988 584.518 596.341 585.821 594.458C586.324 593.73 586.955 593.099 587.683 592.595C589.566 591.293 592.213 591.293 597.508 591.293H651.089C656.383 591.293 659.03 591.293 660.913 592.595C661.641 593.099 662.272 593.73 662.776 594.458C664.078 596.341 664.078 598.988 664.078 604.282H584.518Z" fill="url(#paint10_linear_48_129)"/>
</g>
</g>
<path d="M382.889 357.667H356.444V384.111H382.889V410.556H488.667V384.111H515.111V357.667H488.667V384.111H382.889V357.667Z" fill="black" style="mix-blend-mode:overlay"/>
<path d="M462.222 199H435.778V304.778H409.333V331.222H462.222V199Z" fill="black" style="mix-blend-mode:overlay"/>
<rect x="541.556" y="199" width="26.4444" height="52.8889" fill="black" style="mix-blend-mode:overlay"/>
<rect x="330" y="199" width="26.4444" height="52.8889" fill="black" style="mix-blend-mode:overlay"/>
<defs>
<filter id="filter0_n_48_129" x="151" y="36" width="595.885" height="825.405" filterUnits="userSpaceOnUse" color-interpolation-filters="sRGB">
<feFlood flood-opacity="0" result="BackgroundImageFix"/>
<feBlend mode="normal" in="SourceGraphic" in2="BackgroundImageFix" result="shape"/>
<feTurbulence type="fractalNoise" baseFrequency="1.7919061183929443 1.7919061183929443" stitchTiles="stitch" numOctaves="3" result="noise" seed="5817" />
<feComponentTransfer in="noise" result="coloredNoise1">
<feFuncR type="linear" slope="2" intercept="-0.5" />
<feFuncG type="linear" slope="2" intercept="-0.5" />
<feFuncB type="linear" slope="2" intercept="-0.5" />
<feFuncA type="discrete" tableValues="1 1 1 1 1 1 1 1 1 1 1 1 1 1 1 1 1 1 1 1 1 1 1 1 1 1 1 1 1 1 1 1 1 1 1 1 1 1 1 1 1 1 1 1 1 1 1 1 1 1 1 0 0 0 0 0 0 0 0 0 0 0 0 0 0 0 0 0 0 0 0 0 0 0 0 0 0 0 0 0 0 0 0 0 0 0 0 0 0 0 0 0 0 0 0 0 0 0 0 0 "/>
</feComponentTransfer>
<feComposite operator="in" in2="shape" in="coloredNoise1" result="noise1Clipped" />
<feComponentTransfer in="noise1Clipped" result="color1">
<feFuncA type="table" tableValues="0 0.15" />
</feComponentTransfer>
<feMerge result="effect1_noise_48_129">
<feMergeNode in="shape" />
<feMergeNode in="color1" />
</feMerge>
</filter>
<filter id="filter1_i_48_129" x="189.529" y="779.902" width="518.656" height="81.5032" filterUnits="userSpaceOnUse" color-interpolation-filters="sRGB">
<feFlood flood-opacity="0" result="BackgroundImageFix"/>
<feBlend mode="normal" in="SourceGraphic" in2="BackgroundImageFix" result="shape"/>
<feColorMatrix in="SourceAlpha" type="matrix" values="0 0 0 0 0 0 0 0 0 0 0 0 0 0 0 0 0 0 127 0" result="hardAlpha"/>
<feOffset dy="24.4585"/>
<feComposite in2="hardAlpha" operator="arithmetic" k2="-1" k3="1"/>
<feColorMatrix type="matrix" values="0 0 0 0 0 0 0 0 0 0 0 0 0 0 0 0 0 0 0.12 0"/>
<feBlend mode="normal" in2="shape" result="effect1_innerShadow_48_129"/>
</filter>
<filter id="filter2_f_48_129" x="172.508" y="76.9924" width="552.868" height="671.396" filterUnits="userSpaceOnUse" color-interpolation-filters="sRGB">
<feFlood flood-opacity="0" result="BackgroundImageFix"/>
<feBlend mode="normal" in="SourceGraphic" in2="BackgroundImageFix" result="shape"/>
<feGaussianBlur stdDeviation="0.611462" result="effect1_foregroundBlur_48_129"/>
</filter>
<filter id="filter3_f_48_129" x="203.358" y="107.842" width="491.169" height="380.76" filterUnits="userSpaceOnUse" color-interpolation-filters="sRGB">
<feFlood flood-opacity="0" result="BackgroundImageFix"/>
<feBlend mode="normal" in="SourceGraphic" in2="BackgroundImageFix" result="shape"/>
<feGaussianBlur stdDeviation="0.611462" result="effect1_foregroundBlur_48_129"/>
</filter>
<filter id="filter4_i_48_129" x="225.688" y="617.272" width="79.1587" height="79.1587" filterUnits="userSpaceOnUse" color-interpolation-filters="sRGB">
<feFlood flood-opacity="0" result="BackgroundImageFix"/>
<feBlend mode="normal" in="SourceGraphic" in2="BackgroundImageFix" result="shape"/>
<feColorMatrix in="SourceAlpha" type="matrix" values="0 0 0 0 0 0 0 0 0 0 0 0 0 0 0 0 0 0 127 0" result="hardAlpha"/>
<feMorphology radius="1.22292" operator="erode" in="SourceAlpha" result="effect1_innerShadow_48_129"/>
<feOffset dx="1.22292" dy="1.22292"/>
<feGaussianBlur stdDeviation="1.22292"/>
<feComposite in2="hardAlpha" operator="arithmetic" k2="-1" k3="1"/>
<feColorMatrix type="matrix" values="0 0 0 0 0 0 0 0 0 0 0 0 0 0 0 0 0 0 0.2 0"/>
<feBlend mode="normal" in2="shape" result="effect1_innerShadow_48_129"/>
</filter>
<filter id="filter5_dd_48_129" x="222.704" y="616.733" width="83.9053" height="83.9052" filterUnits="userSpaceOnUse" color-interpolation-filters="sRGB">
<feFlood flood-opacity="0" result="BackgroundImageFix"/>
<feColorMatrix in="SourceAlpha" type="matrix" values="0 0 0 0 0 0 0 0 0 0 0 0 0 0 0 0 0 0 127 0" result="hardAlpha"/>
<feOffset dy="0.893266"/>
<feGaussianBlur stdDeviation="0.893266"/>
<feColorMatrix type="matrix" values="0 0 0 0 0 0 0 0 0 0 0 0 0 0 0 0 0 0 0.3 0"/>
<feBlend mode="normal" in2="BackgroundImageFix" result="effect1_dropShadow_48_129"/>
<feColorMatrix in="SourceAlpha" type="matrix" values="0 0 0 0 0 0 0 0 0 0 0 0 0 0 0 0 0 0 127 0" result="hardAlpha"/>
<feOffset dy="2.44585"/>
<feGaussianBlur stdDeviation="7.33754"/>
<feColorMatrix type="matrix" values="0 0 0 0 0 0 0 0 0 0 0 0 0 0 0 0 0 0 0.16 0"/>
<feBlend mode="normal" in2="effect1_dropShadow_48_129" result="effect2_dropShadow_48_129"/>
<feBlend mode="normal" in="SourceGraphic" in2="effect2_dropShadow_48_129" result="shape"/>
</filter>
<filter id="filter6_f_48_129" x="231.162" y="622.84" width="45.547" height="44.5785" filterUnits="userSpaceOnUse" color-interpolation-filters="sRGB">
<feFlood flood-opacity="0" result="BackgroundImageFix"/>
<feBlend mode="normal" in="SourceGraphic" in2="BackgroundImageFix" result="shape"/>
<feGaussianBlur stdDeviation="5.87003" result="effect1_foregroundBlur_48_129"/>
</filter>
<filter id="filter7_i_48_129" x="584.518" y="591.293" width="79.5596" height="15.4351" filterUnits="userSpaceOnUse" color-interpolation-filters="sRGB">
<feFlood flood-opacity="0" result="BackgroundImageFix"/>
<feBlend mode="normal" in="SourceGraphic" in2="BackgroundImageFix" result="shape"/>
<feColorMatrix in="SourceAlpha" type="matrix" values="0 0 0 0 0 0 0 0 0 0 0 0 0 0 0 0 0 0 127 0" result="hardAlpha"/>
<feOffset dy="2.44585"/>
<feGaussianBlur stdDeviation="1.22292"/>
<feComposite in2="hardAlpha" operator="arithmetic" k2="-1" k3="1"/>
<feColorMatrix type="matrix" values="0 0 0 0 0 0 0 0 0 0 0 0 0 0 0 0 0 0 0.2 0"/>
<feBlend mode="normal" in2="shape" result="effect1_innerShadow_48_129"/>
</filter>
<linearGradient id="paint0_linear_48_129" x1="448.857" y1="779.902" x2="448.857" y2="861.405" gradientUnits="userSpaceOnUse">
<stop stop-color="#8F8F8F"/>
</linearGradient>
<linearGradient id="paint1_linear_48_129" x1="448.942" y1="36" x2="448.942" y2="789.38" gradientUnits="userSpaceOnUse">
<stop stop-color="#FBF9F8"/>
<stop offset="0.0727187" stop-color="#E1E1E1"/>
<stop offset="0.473103" stop-color="#BABABA"/>
<stop offset="0.929747" stop-color="#CACACA"/>
<stop offset="1" stop-color="#9D9D9D"/>
</linearGradient>
<linearGradient id="paint2_linear_48_129" x1="449.754" y1="78.2153" x2="448.942" y2="747.165" gradientUnits="userSpaceOnUse">
<stop stop-color="#F7F7F7"/>
<stop offset="0.171789" stop-color="#D3D3D3"/>
<stop offset="1" stop-color="#D5D5D5"/>
</linearGradient>
<linearGradient id="paint3_linear_48_129" x1="448.942" y1="78.2153" x2="448.942" y2="747.165" gradientUnits="userSpaceOnUse">
<stop stop-color="white" stop-opacity="0.6"/>
<stop offset="0.507222" stop-color="white" stop-opacity="0.1"/>
<stop offset="1" stop-color="white" stop-opacity="0"/>
</linearGradient>
<linearGradient id="paint4_linear_48_129" x1="448.942" y1="109.065" x2="448.942" y2="487.379" gradientUnits="userSpaceOnUse">
<stop stop-color="#FFF0E3" stop-opacity="0.6"/>
<stop offset="1" stop-color="#FFF0E3" stop-opacity="0.5"/>
</linearGradient>
<linearGradient id="paint5_linear_48_129" x1="659.207" y1="455.717" x2="224.065" y2="123.678" gradientUnits="userSpaceOnUse">
<stop stop-color="#1E201D"/>
<stop offset="1" stop-color="#30332E"/>
</linearGradient>
<radialGradient id="paint6_radial_48_129" cx="0" cy="0" r="1" gradientUnits="userSpaceOnUse" gradientTransform="translate(449.393 155.494) rotate(90) scale(273.829 232.734)">
<stop stop-color="#E4EEF5"/>
<stop offset="1" stop-color="#ACC3D4"/>
</radialGradient>
<linearGradient id="paint7_linear_48_129" x1="264.656" y1="617.272" x2="264.656" y2="695.208" gradientUnits="userSpaceOnUse">
<stop stop-color="#D9D9D9"/>
<stop offset="1" stop-color="#D6D6D6"/>
</linearGradient>
<linearGradient id="paint8_linear_48_129" x1="654.899" y1="633.635" x2="628.329" y2="529.783" gradientUnits="userSpaceOnUse">
<stop stop-color="#1E201D"/>
<stop offset="1" stop-color="#30332E"/>
</linearGradient>
<linearGradient id="paint9_linear_48_129" x1="522.819" y1="592.917" x2="522.819" y2="626.202" gradientUnits="userSpaceOnUse">
<stop stop-color="#66594A" stop-opacity="0.5"/>
<stop offset="1" stop-color="white" stop-opacity="0.3"/>
</linearGradient>
<linearGradient id="paint10_linear_48_129" x1="624.298" y1="591.293" x2="624.298" y2="604.282" gradientUnits="userSpaceOnUse">
<stop stop-color="#9A9A9A"/>
<stop offset="1" stop-color="#C1C1C1"/>
</linearGradient>
</defs>
</svg>
