<svg width="180" height="180" viewBox="0 0 180 180" fill="none" xmlns="http://www.w3.org/2000/svg">
<g filter="url(#filter0_n_62_108)">
<g filter="url(#filter1_i_62_108)">
<path d="M37 149H143C143 154.925 143 157.888 141.257 159.806C141.114 159.963 140.963 160.114 140.806 160.257C138.888 162 135.925 162 130 162H50C44.0745 162 41.1118 162 39.1943 160.257C39.0368 160.114 38.8862 159.963 38.7431 159.806C37 157.888 37 154.925 37 149Z" fill="url(#paint0_linear_62_108)"/>
</g>
<path d="M141.998 150C141.995 152.477 141.974 154.326 141.79 155.78C141.585 157.399 141.194 158.387 140.517 159.133C140.395 159.267 140.267 159.395 140.133 159.517C139.387 160.194 138.399 160.585 136.78 160.79C135.137 160.998 132.989 161 130 161H50C47.0108 161 44.8634 160.998 43.2197 160.79C41.6014 160.585 40.6127 160.194 39.8672 159.517C39.7332 159.395 39.6052 159.267 39.4834 159.133C38.8057 158.387 38.4148 157.399 38.21 155.78C38.0258 154.326 38.0047 152.477 38.002 150H141.998Z" stroke="url(#paint1_radial_62_108)" stroke-opacity="0.6" stroke-width="2"/>
<rect x="30.1924" y="18.2443" width="119.808" height="132.644" rx="8.97816" fill="url(#paint2_linear_62_108)"/>
<g filter="url(#filter2_d_62_108)">
<rect x="34.4712" y="22.5231" width="111.25" height="120.877" rx="7.02639" fill="url(#paint3_linear_62_108)"/>
<rect x="34.6664" y="22.7182" width="110.86" height="120.487" rx="6.83121" stroke="url(#paint4_linear_62_108)" stroke-width="0.390355"/>
</g>
<g filter="url(#filter3_f_62_108)">
<rect x="46.314" y="31.1879" width="87.565" height="66.5088" rx="5.46497" fill="#242622"/>
<rect x="46.314" y="31.1879" width="87.565" height="66.5088" rx="5.46497" fill="black" fill-opacity="0.2"/>
<rect x="46.8488" y="31.7227" width="86.4953" height="65.4391" rx="4.93011" stroke="url(#paint5_linear_62_108)" stroke-width="1.06971"/>
</g>
<rect x="45.5349" y="31.5349" width="88.9303" height="73.9303" rx="4.93011" fill="#242622"/>
<rect x="45.5349" y="31.5349" width="88.9303" height="73.9303" rx="4.93011" fill="black" fill-opacity="0.2"/>
<rect x="45.5349" y="31.5349" width="88.9303" height="73.9303" rx="4.93011" stroke="url(#paint6_linear_62_108)" stroke-width="1.06971"/>
<g filter="url(#filter4_i_62_108)">
<rect x="46" y="116" width="16" height="15" rx="2" fill="#D9D9D9"/>
</g>
<rect x="46.5" y="116.5" width="15" height="14" rx="1.5" stroke="url(#paint7_linear_62_108)"/>
<g filter="url(#filter5_i_62_108)">
<rect x="47" y="117" width="14" height="13" rx="1" fill="#2B2E29"/>
</g>
<g filter="url(#filter6_dd_62_108)">
<mask id="mask0_62_108" style="mask-type:alpha" maskUnits="userSpaceOnUse" x="48" y="117" width="12" height="13">
<ellipse cx="54.1867" cy="123.596" rx="5.81313" ry="5.70386" fill="#C4C4C4"/>
</mask>
<g mask="url(#mask0_62_108)">
<rect x="48" y="117" width="12" height="4" fill="#4F9D37"/>
<rect x="48" y="121" width="12" height="3" fill="#FFBA2A"/>
<rect x="48" y="124" width="12" height="3" fill="#E5373C"/>
<rect x="48" y="127" width="12" height="3" fill="#1DABE3"/>
</g>
</g>
<g opacity="0.6" filter="url(#filter7_f_62_108)">
<ellipse cx="3.6177" cy="1.08816" rx="3.6177" ry="1.08816" transform="matrix(0.732361 -0.680916 0.694669 0.719329 48.1035 122.554)" fill="white"/>
</g>
<mask id="path-18-outside-1_62_108" maskUnits="userSpaceOnUse" x="82.5752" y="118.955" width="53" height="10" fill="black">
<rect fill="white" x="82.5752" y="118.955" width="53" height="10"/>
<path d="M131.852 119.955C132.956 119.955 133.508 119.955 133.851 120.298C134.194 120.641 134.193 121.193 134.193 122.297V125.034C134.193 126.138 134.193 126.69 133.851 127.033C133.508 127.376 132.956 127.377 131.852 127.377H122.281C121.177 127.377 120.625 127.376 120.282 127.033C119.977 126.728 119.945 126.257 119.941 125.378H85.002C84.7642 125.378 84.6452 125.378 84.5459 125.361C84.0585 125.277 83.6764 124.894 83.5918 124.407C83.5746 124.308 83.5752 124.189 83.5752 123.951C83.5752 123.713 83.5746 123.594 83.5918 123.495C83.6764 123.007 84.0585 122.625 84.5459 122.541C84.6452 122.524 84.7642 122.523 85.002 122.523H119.938V122.297C119.938 121.193 119.939 120.641 120.282 120.298C120.625 119.955 121.177 119.955 122.281 119.955H131.852Z"/>
</mask>
<path d="M131.852 119.955C132.956 119.955 133.508 119.955 133.851 120.298C134.194 120.641 134.193 121.193 134.193 122.297V125.034C134.193 126.138 134.193 126.69 133.851 127.033C133.508 127.376 132.956 127.377 131.852 127.377H122.281C121.177 127.377 120.625 127.376 120.282 127.033C119.977 126.728 119.945 126.257 119.941 125.378H85.002C84.7642 125.378 84.6452 125.378 84.5459 125.361C84.0585 125.277 83.6764 124.894 83.5918 124.407C83.5746 124.308 83.5752 124.189 83.5752 123.951C83.5752 123.713 83.5746 123.594 83.5918 123.495C83.6764 123.007 84.0585 122.625 84.5459 122.541C84.6452 122.524 84.7642 122.523 85.002 122.523H119.938V122.297C119.938 121.193 119.939 120.641 120.282 120.298C120.625 119.955 121.177 119.955 122.281 119.955H131.852Z" fill="url(#paint8_linear_62_108)"/>
<path d="M133.851 120.298L134.265 119.884L134.265 119.883L133.851 120.298ZM134.193 122.297H134.779H134.193ZM133.851 127.033L134.265 127.447L134.265 127.447L133.851 127.033ZM120.282 127.033L119.868 127.447L119.868 127.447L120.282 127.033ZM119.941 125.378L120.527 125.375L120.525 124.792H119.941V125.378ZM85.002 125.378V125.963V125.963V125.378ZM84.5459 125.361L84.4458 125.938L84.4458 125.938L84.5459 125.361ZM83.5918 124.407L83.0148 124.507L83.0149 124.507L83.5918 124.407ZM83.5752 123.951H82.9897H83.5752ZM83.5918 123.495L83.0149 123.395L83.0148 123.395L83.5918 123.495ZM84.5459 122.541L84.4458 121.964L84.4458 121.964L84.5459 122.541ZM85.002 122.523V121.938V122.523ZM119.938 122.523V123.109H120.524V122.523H119.938ZM119.938 122.297H119.353H119.938ZM120.282 120.298L119.868 119.883L119.868 119.884L120.282 120.298ZM131.852 119.955V120.54C132.42 120.54 132.788 120.542 133.058 120.578C133.312 120.612 133.392 120.667 133.437 120.712L133.851 120.298L134.265 119.883C133.966 119.585 133.598 119.469 133.214 119.417C132.847 119.368 132.387 119.369 131.852 119.369V119.955ZM133.851 120.298L133.437 120.712C133.481 120.756 133.536 120.836 133.57 121.09C133.607 121.361 133.608 121.728 133.608 122.297H134.193H134.779C134.779 121.761 134.78 121.301 134.731 120.934C134.679 120.55 134.563 120.182 134.265 119.884L133.851 120.298ZM134.193 122.297H133.608V125.034H134.193H134.779V122.297H134.193ZM134.193 125.034H133.608C133.608 125.602 133.607 125.97 133.57 126.241C133.536 126.495 133.481 126.574 133.436 126.619L133.851 127.033L134.265 127.447C134.563 127.148 134.679 126.781 134.731 126.397C134.78 126.03 134.779 125.569 134.779 125.034H134.193ZM133.851 127.033L133.437 126.619C133.392 126.664 133.312 126.719 133.058 126.753C132.787 126.79 132.42 126.791 131.852 126.791V127.377V127.962C132.387 127.962 132.848 127.963 133.215 127.914C133.599 127.862 133.966 127.745 134.265 127.447L133.851 127.033ZM131.852 127.377V126.791H122.281V127.377V127.962H131.852V127.377ZM122.281 127.377V126.791C121.713 126.791 121.345 126.79 121.075 126.753C120.821 126.719 120.741 126.664 120.696 126.619L120.282 127.033L119.868 127.447C120.166 127.745 120.534 127.862 120.918 127.914C121.285 127.963 121.746 127.962 122.281 127.962V127.377ZM120.282 127.033L120.696 126.619C120.656 126.579 120.609 126.512 120.575 126.319C120.539 126.11 120.529 125.822 120.527 125.375L119.941 125.378L119.356 125.38C119.358 125.813 119.365 126.199 119.422 126.522C119.481 126.861 119.603 127.182 119.868 127.447L120.282 127.033ZM119.941 125.378V124.792H85.002V125.378V125.963H119.941V125.378ZM85.002 125.378V124.792C84.7369 124.792 84.6825 124.791 84.646 124.784L84.5459 125.361L84.4458 125.938C84.6079 125.966 84.7915 125.963 85.002 125.963V125.378ZM84.5459 125.361L84.646 124.784C84.4023 124.742 84.211 124.551 84.1687 124.307L83.5918 124.407L83.0149 124.507C83.1417 125.238 83.7147 125.811 84.4458 125.938L84.5459 125.361ZM83.5918 124.407L84.1688 124.307C84.1624 124.27 84.1607 124.216 84.1607 123.951H83.5752H82.9897C82.9897 124.162 82.9868 124.345 83.0148 124.507L83.5918 124.407ZM83.5752 123.951H84.1607C84.1607 123.686 84.1624 123.631 84.1688 123.595L83.5918 123.495L83.0148 123.395C82.9868 123.557 82.9897 123.74 82.9897 123.951H83.5752ZM83.5918 123.495L84.1687 123.595C84.211 123.351 84.4023 123.16 84.646 123.118L84.5459 122.541L84.4458 121.964C83.7147 122.091 83.1417 122.664 83.0149 123.395L83.5918 123.495ZM84.5459 122.541L84.646 123.118C84.6834 123.111 84.7413 123.109 85.002 123.109V122.523V121.938C84.7871 121.938 84.607 121.936 84.4458 121.964L84.5459 122.541ZM85.002 122.523V123.109H119.938V122.523V121.938H85.002V122.523ZM119.938 122.523H120.524V122.297H119.938H119.353V122.523H119.938ZM119.938 122.297H120.524C120.524 121.728 120.525 121.361 120.562 121.09C120.596 120.836 120.652 120.756 120.696 120.712L120.282 120.298L119.868 119.884C119.57 120.182 119.453 120.55 119.401 120.933C119.352 121.301 119.353 121.761 119.353 122.297H119.938ZM120.282 120.298L120.696 120.712C120.741 120.667 120.82 120.612 121.074 120.578C121.345 120.542 121.713 120.54 122.281 120.54V119.955V119.369C121.746 119.369 121.285 119.368 120.918 119.417C120.535 119.469 120.167 119.585 119.868 119.883L120.282 120.298ZM122.281 119.955V120.54H131.852V119.955V119.369H122.281V119.955Z" fill="url(#paint9_linear_62_108)" mask="url(#path-18-outside-1_62_108)"/>
</g>
<path d="M51 45C51 41.2288 51 39.3431 52.1716 38.1716C53.3431 37 55.2288 37 59 37H121C124.771 37 126.657 37 127.828 38.1716C129 39.3431 129 41.2288 129 45V92C129 95.7712 129 97.6569 127.828 98.8284C126.657 100 124.771 100 121 100H59C55.2288 100 53.3431 100 52.1716 98.8284C51 97.6569 51 95.7712 51 92V45Z" fill="url(#paint10_radial_62_108)"/>
<g filter="url(#filter8_d_62_108)">
<path d="M77.7882 80.1298H72.124V85.794H77.7882V91.4581H100.445V85.794H106.109V80.1298H100.445V85.794H77.7882V80.1298Z" fill="#1F221D"/>
<path d="M94.7805 46.1448H89.1163V68.8016H83.4521V74.4657H94.7805V46.1448Z" fill="#1F221D"/>
<rect x="111.773" y="46.1448" width="5.66419" height="11.3284" fill="#1F221D"/>
<rect x="66.4595" y="46.1448" width="5.66419" height="11.3284" fill="#1F221D"/>
</g>
<defs>
<filter id="filter0_n_62_108" x="30.1924" y="18.2443" width="119.808" height="143.756" filterUnits="userSpaceOnUse" color-interpolation-filters="sRGB">
<feFlood flood-opacity="0" result="BackgroundImageFix"/>
<feBlend mode="normal" in="SourceGraphic" in2="BackgroundImageFix" result="shape"/>
<feTurbulence type="fractalNoise" baseFrequency="11.227545738220215 11.227545738220215" stitchTiles="stitch" numOctaves="3" result="noise" seed="5817" />
<feComponentTransfer in="noise" result="coloredNoise1">
<feFuncR type="linear" slope="2" intercept="-0.5" />
<feFuncG type="linear" slope="2" intercept="-0.5" />
<feFuncB type="linear" slope="2" intercept="-0.5" />
<feFuncA type="discrete" tableValues="1 1 1 1 1 1 1 1 1 1 1 1 1 1 1 1 1 1 1 1 1 1 1 1 1 1 1 1 1 1 1 1 1 1 1 1 1 1 1 1 1 1 1 1 1 1 1 1 1 1 1 0 0 0 0 0 0 0 0 0 0 0 0 0 0 0 0 0 0 0 0 0 0 0 0 0 0 0 0 0 0 0 0 0 0 0 0 0 0 0 0 0 0 0 0 0 0 0 0 0 "/>
</feComponentTransfer>
<feComposite operator="in" in2="shape" in="coloredNoise1" result="noise1Clipped" />
<feComponentTransfer in="noise1Clipped" result="color1">
<feFuncA type="table" tableValues="0 0.15" />
</feComponentTransfer>
<feMerge result="effect1_noise_62_108">
<feMergeNode in="shape" />
<feMergeNode in="color1" />
</feMerge>
</filter>
<filter id="filter1_i_62_108" x="37" y="149" width="106" height="15.3" filterUnits="userSpaceOnUse" color-interpolation-filters="sRGB">
<feFlood flood-opacity="0" result="BackgroundImageFix"/>
<feBlend mode="normal" in="SourceGraphic" in2="BackgroundImageFix" result="shape"/>
<feColorMatrix in="SourceAlpha" type="matrix" values="0 0 0 0 0 0 0 0 0 0 0 0 0 0 0 0 0 0 127 0" result="hardAlpha"/>
<feOffset dy="5"/>
<feGaussianBlur stdDeviation="1.15"/>
<feComposite in2="hardAlpha" operator="arithmetic" k2="-1" k3="1"/>
<feColorMatrix type="matrix" values="0 0 0 0 0 0 0 0 0 0 0 0 0 0 0 0 0 0 0.4 0"/>
<feBlend mode="normal" in2="shape" result="effect1_innerShadow_62_108"/>
</filter>
<filter id="filter2_d_62_108" x="31.3712" y="20.4231" width="117.45" height="127.077" filterUnits="userSpaceOnUse" color-interpolation-filters="sRGB">
<feFlood flood-opacity="0" result="BackgroundImageFix"/>
<feColorMatrix in="SourceAlpha" type="matrix" values="0 0 0 0 0 0 0 0 0 0 0 0 0 0 0 0 0 0 127 0" result="hardAlpha"/>
<feOffset dy="1"/>
<feGaussianBlur stdDeviation="1.55"/>
<feComposite in2="hardAlpha" operator="out"/>
<feColorMatrix type="matrix" values="0 0 0 0 0 0 0 0 0 0 0 0 0 0 0 0 0 0 0.25 0"/>
<feBlend mode="normal" in2="BackgroundImageFix" result="effect1_dropShadow_62_108"/>
<feBlend mode="normal" in="SourceGraphic" in2="effect1_dropShadow_62_108" result="shape"/>
</filter>
<filter id="filter3_f_62_108" x="46.1188" y="30.9927" width="87.9553" height="66.8991" filterUnits="userSpaceOnUse" color-interpolation-filters="sRGB">
<feFlood flood-opacity="0" result="BackgroundImageFix"/>
<feBlend mode="normal" in="SourceGraphic" in2="BackgroundImageFix" result="shape"/>
<feGaussianBlur stdDeviation="0.0975887" result="effect1_foregroundBlur_62_108"/>
</filter>
<filter id="filter4_i_62_108" x="46" y="116" width="16.1952" height="15.1952" filterUnits="userSpaceOnUse" color-interpolation-filters="sRGB">
<feFlood flood-opacity="0" result="BackgroundImageFix"/>
<feBlend mode="normal" in="SourceGraphic" in2="BackgroundImageFix" result="shape"/>
<feColorMatrix in="SourceAlpha" type="matrix" values="0 0 0 0 0 0 0 0 0 0 0 0 0 0 0 0 0 0 127 0" result="hardAlpha"/>
<feMorphology radius="0.195177" operator="erode" in="SourceAlpha" result="effect1_innerShadow_62_108"/>
<feOffset dx="0.195177" dy="0.195177"/>
<feGaussianBlur stdDeviation="0.195177"/>
<feComposite in2="hardAlpha" operator="arithmetic" k2="-1" k3="1"/>
<feColorMatrix type="matrix" values="0 0 0 0 0 0 0 0 0 0 0 0 0 0 0 0 0 0 0.2 0"/>
<feBlend mode="normal" in2="shape" result="effect1_innerShadow_62_108"/>
</filter>
<filter id="filter5_i_62_108" x="47" y="117" width="14.1952" height="13.1952" filterUnits="userSpaceOnUse" color-interpolation-filters="sRGB">
<feFlood flood-opacity="0" result="BackgroundImageFix"/>
<feBlend mode="normal" in="SourceGraphic" in2="BackgroundImageFix" result="shape"/>
<feColorMatrix in="SourceAlpha" type="matrix" values="0 0 0 0 0 0 0 0 0 0 0 0 0 0 0 0 0 0 127 0" result="hardAlpha"/>
<feMorphology radius="0.195177" operator="erode" in="SourceAlpha" result="effect1_innerShadow_62_108"/>
<feOffset dx="0.195177" dy="0.195177"/>
<feGaussianBlur stdDeviation="0.195177"/>
<feComposite in2="hardAlpha" operator="arithmetic" k2="-1" k3="1"/>
<feColorMatrix type="matrix" values="0 0 0 0 0 0 0 0 0 0 0 0 0 0 0 0 0 0 0.2 0"/>
<feBlend mode="normal" in2="shape" result="effect1_innerShadow_62_108"/>
</filter>
<filter id="filter6_dd_62_108" x="45.1084" y="115.172" width="18.1567" height="17.9379" filterUnits="userSpaceOnUse" color-interpolation-filters="sRGB">
<feFlood flood-opacity="0" result="BackgroundImageFix"/>
<feColorMatrix in="SourceAlpha" type="matrix" values="0 0 0 0 0 0 0 0 0 0 0 0 0 0 0 0 0 0 127 0" result="hardAlpha"/>
<feOffset dy="0.198745"/>
<feGaussianBlur stdDeviation="0.198745"/>
<feColorMatrix type="matrix" values="0 0 0 0 0 0 0 0 0 0 0 0 0 0 0 0 0 0 0.3 0"/>
<feBlend mode="normal" in2="BackgroundImageFix" result="effect1_dropShadow_62_108"/>
<feColorMatrix in="SourceAlpha" type="matrix" values="0 0 0 0 0 0 0 0 0 0 0 0 0 0 0 0 0 0 127 0" result="hardAlpha"/>
<feOffset dy="0.544184"/>
<feGaussianBlur stdDeviation="1.63255"/>
<feColorMatrix type="matrix" values="0 0 0 0 0 0 0 0 0 0 0 0 0 0 0 0 0 0 0.16 0"/>
<feBlend mode="normal" in2="effect1_dropShadow_62_108" result="effect2_dropShadow_62_108"/>
<feBlend mode="normal" in="SourceGraphic" in2="effect2_dropShadow_62_108" result="shape"/>
</filter>
<filter id="filter7_f_62_108" x="46.1408" y="115.676" width="10.7359" height="10.3949" filterUnits="userSpaceOnUse" color-interpolation-filters="sRGB">
<feFlood flood-opacity="0" result="BackgroundImageFix"/>
<feBlend mode="normal" in="SourceGraphic" in2="BackgroundImageFix" result="shape"/>
<feGaussianBlur stdDeviation="1.30604" result="effect1_foregroundBlur_62_108"/>
</filter>
<filter id="filter8_d_62_108" x="66.4595" y="46.1448" width="52.0477" height="46.3831" filterUnits="userSpaceOnUse" color-interpolation-filters="sRGB">
<feFlood flood-opacity="0" result="BackgroundImageFix"/>
<feColorMatrix in="SourceAlpha" type="matrix" values="0 0 0 0 0 0 0 0 0 0 0 0 0 0 0 0 0 0 127 0" result="hardAlpha"/>
<feOffset dx="0.534855" dy="0.534855"/>
<feGaussianBlur stdDeviation="0.267428"/>
<feComposite in2="hardAlpha" operator="out"/>
<feColorMatrix type="matrix" values="0 0 0 0 0.0401611 0 0 0 0 0.0401611 0 0 0 0 0.0401611 0 0 0 0.21 0"/>
<feBlend mode="normal" in2="BackgroundImageFix" result="effect1_dropShadow_62_108"/>
<feBlend mode="normal" in="SourceGraphic" in2="effect1_dropShadow_62_108" result="shape"/>
</filter>
<linearGradient id="paint0_linear_62_108" x1="90" y1="149" x2="90" y2="162" gradientUnits="userSpaceOnUse">
<stop stop-color="#8F8F8F"/>
</linearGradient>
<radialGradient id="paint1_radial_62_108" cx="0" cy="0" r="1" gradientUnits="userSpaceOnUse" gradientTransform="translate(91.5 156) rotate(-0.556253) scale(51.5024 5.39308)">
<stop stop-color="#C5C7C3"/>
<stop offset="0.975975" stop-color="#6A6A6A"/>
</radialGradient>
<linearGradient id="paint2_linear_62_108" x1="90.0962" y1="18.2443" x2="90.0962" y2="150.888" gradientUnits="userSpaceOnUse">
<stop offset="0.0727187" stop-color="#E1E1E1"/>
<stop offset="0.473103" stop-color="#BABABA"/>
<stop offset="0.929747" stop-color="#CACACA"/>
<stop offset="1" stop-color="#9D9D9D"/>
</linearGradient>
<linearGradient id="paint3_linear_62_108" x1="90.2602" y1="22.5231" x2="90.1291" y2="143.4" gradientUnits="userSpaceOnUse">
<stop stop-color="#D5D5D5"/>
<stop offset="0.51924" stop-color="#E4E4E4"/>
<stop offset="1" stop-color="#D5D5D5"/>
</linearGradient>
<linearGradient id="paint4_linear_62_108" x1="90.0962" y1="22.5231" x2="90.0962" y2="143.4" gradientUnits="userSpaceOnUse">
<stop stop-color="white" stop-opacity="0.6"/>
<stop offset="0.507222" stop-color="white" stop-opacity="0.1"/>
<stop offset="1" stop-color="white" stop-opacity="0"/>
</linearGradient>
<linearGradient id="paint5_linear_62_108" x1="90.0965" y1="31.1879" x2="90.0965" y2="97.6967" gradientUnits="userSpaceOnUse">
<stop stop-color="#FFF0E3" stop-opacity="0.6"/>
<stop offset="1" stop-color="#FFF0E3" stop-opacity="0.5"/>
</linearGradient>
<linearGradient id="paint6_linear_62_108" x1="90" y1="31" x2="90" y2="106" gradientUnits="userSpaceOnUse">
<stop stop-color="#FFF0E3" stop-opacity="0.6"/>
<stop offset="1" stop-color="#FFF0E3" stop-opacity="0.5"/>
</linearGradient>
<linearGradient id="paint7_linear_62_108" x1="54" y1="116.577" x2="54" y2="128.404" gradientUnits="userSpaceOnUse">
<stop stop-color="#66594A" stop-opacity="0.5"/>
<stop offset="1" stop-color="white" stop-opacity="0.3"/>
</linearGradient>
<linearGradient id="paint8_linear_62_108" x1="132.549" y1="127.399" x2="127.954" y2="109.099" gradientUnits="userSpaceOnUse">
<stop stop-color="#1E201D"/>
<stop offset="1" stop-color="#30332E"/>
</linearGradient>
<linearGradient id="paint9_linear_62_108" x1="108.884" y1="120.24" x2="108.884" y2="126.092" gradientUnits="userSpaceOnUse">
<stop stop-color="#66594A" stop-opacity="0.5"/>
<stop offset="1" stop-color="white" stop-opacity="0.3"/>
</linearGradient>
<radialGradient id="paint10_radial_62_108" cx="0" cy="0" r="1" gradientTransform="matrix(-1.65254 37.6308 -56.424 -2.86598 90 68.5)" gradientUnits="userSpaceOnUse">
<stop stop-color="#E8F7FF"/>
<stop offset="1" stop-color="#BCDDED"/>
</radialGradient>
</defs>
</svg>
