<svg width="898" height="898" viewBox="0 0 898 898" fill="none" xmlns="http://www.w3.org/2000/svg">
<g clip-path="url(#clip0_52_2)">
<g filter="url(#filter0_n_52_2)">
<g filter="url(#filter1_i_52_2)">
<path d="M150.159 606.333H748.929V814C748.929 853.598 748.929 873.397 736.628 885.699C724.326 898 704.527 898 664.929 898H234.159C194.561 898 174.762 898 162.46 885.699C150.159 873.397 150.159 853.598 150.159 814V606.333Z" fill="url(#paint0_linear_52_2)"/>
</g>
<rect x="115" width="668.96" height="829.871" rx="56.2545" fill="url(#paint1_linear_52_2)"/>
<g filter="url(#filter2_f_52_2)">
<rect x="140.519" y="46.5015" width="617.922" height="736.869" rx="44.0252" fill="url(#paint2_linear_52_2)"/>
<rect x="141.741" y="47.7244" width="615.476" height="734.423" rx="42.8023" stroke="url(#paint3_linear_52_2)" stroke-width="2.44585"/>
</g>
<g filter="url(#filter3_f_52_2)">
<rect x="175.151" y="80.4832" width="548.656" height="416.724" rx="34.2418" fill="#242622"/>
<rect x="175.151" y="80.4832" width="548.656" height="416.724" rx="34.2418" fill="black" fill-opacity="0.2"/>
<rect x="176.374" y="81.7061" width="546.21" height="414.278" rx="33.0189" stroke="url(#paint4_linear_52_2)" stroke-width="2.44585"/>
</g>
<mask id="mask0_52_2" style="mask-type:alpha" maskUnits="userSpaceOnUse" x="197" y="96" width="505" height="380">
<path d="M204.172 140.129C205.596 127.507 206.308 121.196 211.578 115.762C216.848 110.328 222.956 109.449 235.173 107.69C268.02 102.962 333.788 96.5797 449.479 96.5797C570.802 96.5797 634.708 102.827 665.652 107.539C676.651 109.213 682.15 110.05 687.359 115.453C692.568 120.855 693.24 126.684 694.582 138.341C697.763 165.952 701.934 215.61 701.934 286.176C701.934 356.742 697.763 406.4 694.582 434.011C693.24 445.668 692.568 451.497 687.359 456.899C682.15 462.302 676.651 463.139 665.652 464.813C634.708 469.525 570.802 475.772 449.479 475.772C333.788 475.772 268.02 469.39 235.173 464.662C222.956 462.903 216.848 462.024 211.578 456.59C206.308 451.157 205.596 444.845 204.172 432.223C201.02 404.283 197.024 355.245 197.024 286.176C197.024 217.107 201.02 168.069 204.172 140.129Z" fill="url(#paint5_linear_52_2)"/>
</mask>
<g mask="url(#mask0_52_2)">
<path d="M204.172 140.129C205.596 127.507 206.308 121.196 211.578 115.762C216.848 110.328 222.956 109.449 235.173 107.69C268.02 102.962 333.788 96.5797 449.479 96.5797C570.802 96.5797 634.708 102.827 665.652 107.539C676.651 109.213 682.15 110.05 687.359 115.453C692.568 120.855 693.239 126.684 694.582 138.341C697.763 165.952 701.934 215.61 701.934 286.176C701.934 356.742 697.763 406.4 694.582 434.011C693.239 445.668 692.568 451.497 687.359 456.899C682.15 462.302 676.651 463.139 665.652 464.813C634.708 469.525 570.802 475.772 449.479 475.772C333.788 475.772 268.02 469.39 235.173 464.662C222.956 462.903 216.848 462.024 211.578 456.59C206.308 451.156 205.596 444.845 204.172 432.223C201.02 404.283 197.024 355.245 197.024 286.176C197.024 217.107 201.02 168.069 204.172 140.129Z" fill="url(#paint6_radial_52_2)"/>
</g>
<g filter="url(#filter4_i_52_2)">
<rect x="198.848" y="640.289" width="87.4933" height="85.8488" rx="7.82671" fill="url(#paint7_linear_52_2)"/>
</g>
<g filter="url(#filter5_dd_52_2)">
<mask id="mask1_52_2" style="mask-type:alpha" maskUnits="userSpaceOnUse" x="211" y="653" width="63" height="61">
<ellipse cx="242.595" cy="683.213" rx="30.6227" ry="30.0471" fill="#C4C4C4"/>
</mask>
<g mask="url(#mask1_52_2)">
<rect x="210.318" y="648.293" width="64.5559" height="13.8054" fill="#4F9D37"/>
<rect x="210.317" y="662.099" width="64.5559" height="10.5571" fill="#EBAA22"/>
<rect x="210.317" y="672.656" width="64.5559" height="10.5571" fill="#E77614"/>
<rect x="210.317" y="683.213" width="64.5559" height="10.5571" fill="#CF181D"/>
<rect x="210.317" y="693.77" width="64.5559" height="10.5571" fill="#AE38AF"/>
<rect x="210.222" y="704.327" width="64.7451" height="12.8773" fill="#009DDC"/>
</g>
</g>
<g opacity="0.6" filter="url(#filter6_f_52_2)">
<ellipse cx="16.2598" cy="4.89075" rx="16.2598" ry="4.89075" transform="matrix(0.732361 -0.680916 0.694669 0.719329 215.253 678.528)" fill="white"/>
</g>
<mask id="path-18-outside-1_52_2" maskUnits="userSpaceOnUse" x="369.834" y="607.672" width="325" height="55" fill="black">
<rect fill="white" x="369.834" y="607.672" width="325" height="55"/>
<path d="M676.322 611.672C683.24 611.672 686.7 611.672 688.849 613.822C690.997 615.971 690.997 619.43 690.997 626.347V643.498C690.997 650.416 690.998 653.876 688.849 656.025C686.7 658.174 683.24 658.174 676.322 658.174H616.356C609.439 658.174 605.979 658.174 603.83 656.025C601.917 654.111 601.709 651.16 601.686 645.654H382.776C381.285 645.654 380.539 645.654 379.917 645.546C376.863 645.016 374.472 642.624 373.942 639.571C373.834 638.948 373.834 638.202 373.834 636.711C373.834 635.22 373.834 634.474 373.942 633.852C374.472 630.798 376.863 628.407 379.917 627.877C380.539 627.769 381.285 627.769 382.776 627.769H601.682V626.347C601.682 619.43 601.681 615.971 603.83 613.822C605.979 611.672 609.439 611.672 616.356 611.672H676.322Z"/>
</mask>
<path d="M676.322 611.672C683.24 611.672 686.7 611.672 688.849 613.822C690.997 615.971 690.997 619.43 690.997 626.347V643.498C690.997 650.416 690.998 653.876 688.849 656.025C686.7 658.174 683.24 658.174 676.322 658.174H616.356C609.439 658.174 605.979 658.174 603.83 656.025C601.917 654.111 601.709 651.16 601.686 645.654H382.776C381.285 645.654 380.539 645.654 379.917 645.546C376.863 645.016 374.472 642.624 373.942 639.571C373.834 638.948 373.834 638.202 373.834 636.711C373.834 635.22 373.834 634.474 373.942 633.852C374.472 630.798 376.863 628.407 379.917 627.877C380.539 627.769 381.285 627.769 382.776 627.769H601.682V626.347C601.682 619.43 601.681 615.971 603.83 613.822C605.979 611.672 609.439 611.672 616.356 611.672H676.322Z" fill="url(#paint8_linear_52_2)"/>
<path d="M688.849 613.822L691.443 611.227L691.443 611.227L688.849 613.822ZM690.997 626.347H694.666H690.997ZM688.849 656.025L691.443 658.619L691.443 658.619L688.849 656.025ZM603.83 656.025L601.236 658.619L601.236 658.619L603.83 656.025ZM601.686 645.654L605.354 645.638L605.339 641.985H601.686V645.654ZM382.776 645.654V649.322V645.654ZM379.917 645.546L379.29 649.161L379.29 649.161L379.917 645.546ZM373.942 639.571L370.328 640.198L370.328 640.198L373.942 639.571ZM373.834 636.711H370.165H373.834ZM373.942 633.852L370.328 633.224L370.328 633.225L373.942 633.852ZM379.917 627.877L379.29 624.262L379.29 624.262L379.917 627.877ZM382.776 627.769V624.1V627.769ZM601.682 627.769V631.438H605.35V627.769H601.682ZM601.682 626.347H598.013H601.682ZM603.83 613.822L601.236 611.227L601.236 611.228L603.83 613.822ZM676.322 611.672V615.341C679.885 615.341 682.188 615.349 683.885 615.577C685.476 615.791 685.975 616.136 686.254 616.416L688.849 613.822L691.443 611.227C689.573 609.358 687.268 608.628 684.863 608.305C682.563 607.996 679.678 608.003 676.322 608.003V611.672ZM688.849 613.822L686.254 616.416C686.533 616.695 686.879 617.193 687.093 618.785C687.321 620.482 687.328 622.784 687.328 626.347H690.997H694.666C694.666 622.992 694.674 620.107 694.365 617.807C694.042 615.403 693.313 613.097 691.443 611.227L688.849 613.822ZM690.997 626.347H687.328V643.498H690.997H694.666V626.347H690.997ZM690.997 643.498H687.328C687.328 647.061 687.321 649.364 687.093 651.061C686.879 652.653 686.533 653.151 686.254 653.431L688.849 656.025L691.443 658.619C693.313 656.749 694.042 654.443 694.365 652.038C694.674 649.739 694.666 646.853 694.666 643.498H690.997ZM688.849 656.025L686.254 653.43C685.975 653.71 685.476 654.055 683.885 654.269C682.188 654.497 679.885 654.505 676.322 654.505V658.174V661.843C679.678 661.843 682.563 661.851 684.863 661.541C687.268 661.218 689.573 660.489 691.443 658.619L688.849 656.025ZM676.322 658.174V654.505H616.356V658.174V661.843H676.322V658.174ZM616.356 658.174V654.505C612.794 654.505 610.491 654.497 608.794 654.269C607.202 654.055 606.704 653.71 606.424 653.43L603.83 656.025L601.236 658.619C603.106 660.489 605.411 661.218 607.816 661.541C610.116 661.851 613.001 661.843 616.356 661.843V658.174ZM603.83 656.025L606.424 653.431C606.17 653.176 605.874 652.752 605.662 651.548C605.431 650.239 605.366 648.431 605.354 645.638L601.686 645.654L598.017 645.669C598.028 648.383 598.079 650.803 598.436 652.824C598.812 654.952 599.577 656.96 601.236 658.619L603.83 656.025ZM601.686 645.654V641.985H382.776V645.654V649.322H601.686V645.654ZM382.776 645.654V641.985C381.129 641.985 380.776 641.972 380.544 641.931L379.917 645.546L379.29 649.161C380.303 649.337 381.442 649.322 382.776 649.322V645.654ZM379.917 645.546L380.544 641.931C379.018 641.667 377.822 640.471 377.557 638.943L373.942 639.571L370.328 640.198C371.122 644.778 374.709 648.366 379.29 649.161L379.917 645.546ZM373.942 639.571L377.557 638.944C377.517 638.71 377.503 638.354 377.503 636.711H373.834H370.165C370.165 638.051 370.152 639.186 370.328 640.198L373.942 639.571ZM373.834 636.711H377.503C377.503 635.068 377.517 634.712 377.557 634.479L373.942 633.852L370.328 633.225C370.152 634.237 370.165 635.372 370.165 636.711H373.834ZM373.942 633.852L377.557 634.479C377.822 632.952 379.018 631.757 380.544 631.492L379.917 627.877L379.29 624.262C374.709 625.057 371.123 628.644 370.328 633.224L373.942 633.852ZM379.917 627.877L380.544 631.492C380.777 631.452 381.134 631.438 382.776 631.438V627.769V624.1C381.437 624.1 380.302 624.087 379.29 624.262L379.917 627.877ZM382.776 627.769V631.438H601.682V627.769V624.1H382.776V627.769ZM601.682 627.769H605.35V626.347H601.682H598.013V627.769H601.682ZM601.682 626.347H605.35C605.35 622.784 605.358 620.482 605.586 618.785C605.8 617.193 606.145 616.695 606.424 616.416L603.83 613.822L601.236 611.228C599.366 613.097 598.637 615.403 598.314 617.807C598.005 620.107 598.013 622.992 598.013 626.347H601.682ZM603.83 613.822L606.424 616.416C606.704 616.136 607.202 615.791 608.794 615.577C610.491 615.349 612.794 615.341 616.356 615.341V611.672V608.003C613.001 608.003 610.116 607.996 607.816 608.305C605.411 608.628 603.106 609.358 601.236 611.227L603.83 613.822ZM616.356 611.672V615.341H676.322V611.672V608.003H616.356V611.672Z" fill="url(#paint9_linear_52_2)" mask="url(#path-18-outside-1_52_2)"/>
<g filter="url(#filter7_i_52_2)">
<path d="M601.681 625.98C601.681 619.419 601.681 616.138 603.631 614.029C603.761 613.888 603.897 613.752 604.038 613.622C606.147 611.672 609.428 611.672 615.989 611.672H676.689C683.251 611.672 686.532 611.672 688.64 613.622C688.782 613.752 688.917 613.888 689.048 614.029C690.997 616.138 690.997 619.419 690.997 625.98H601.681Z" fill="url(#paint10_linear_52_2)"/>
</g>
</g>
<path d="M379.339 369.937H351.475V397.802H379.339V425.666H490.797V397.802H518.661V369.937H490.797V397.802H379.339V369.937Z" fill="black" style="mix-blend-mode:overlay"/>
<path d="M462.932 202.752H435.068V314.209H407.204V342.073H462.932V202.752Z" fill="black" style="mix-blend-mode:overlay"/>
<rect x="546.525" y="202.752" width="27.8643" height="55.7286" fill="black" style="mix-blend-mode:overlay"/>
<rect x="323.611" y="202.752" width="27.8643" height="55.7286" fill="black" style="mix-blend-mode:overlay"/>
</g>
<defs>
<filter id="filter0_n_52_2" x="115" y="0" width="668.959" height="898" filterUnits="userSpaceOnUse" color-interpolation-filters="sRGB">
<feFlood flood-opacity="0" result="BackgroundImageFix"/>
<feBlend mode="normal" in="SourceGraphic" in2="BackgroundImageFix" result="shape"/>
<feTurbulence type="fractalNoise" baseFrequency="1.7919061183929443 1.7919061183929443" stitchTiles="stitch" numOctaves="3" result="noise" seed="5817" />
<feComponentTransfer in="noise" result="coloredNoise1">
<feFuncR type="linear" slope="2" intercept="-0.5" />
<feFuncG type="linear" slope="2" intercept="-0.5" />
<feFuncB type="linear" slope="2" intercept="-0.5" />
<feFuncA type="discrete" tableValues="1 1 1 1 1 1 1 1 1 1 1 1 1 1 1 1 1 1 1 1 1 1 1 1 1 1 1 1 1 1 1 1 1 1 1 1 1 1 1 1 1 1 1 1 1 1 1 1 1 1 1 0 0 0 0 0 0 0 0 0 0 0 0 0 0 0 0 0 0 0 0 0 0 0 0 0 0 0 0 0 0 0 0 0 0 0 0 0 0 0 0 0 0 0 0 0 0 0 0 0 "/>
</feComponentTransfer>
<feComposite operator="in" in2="shape" in="coloredNoise1" result="noise1Clipped" />
<feComponentTransfer in="noise1Clipped" result="color1">
<feFuncA type="table" tableValues="0 0.15" />
</feComponentTransfer>
<feMerge result="effect1_noise_52_2">
<feMergeNode in="shape" />
<feMergeNode in="color1" />
</feMerge>
</filter>
<filter id="filter1_i_52_2" x="150.159" y="606.333" width="598.771" height="291.667" filterUnits="userSpaceOnUse" color-interpolation-filters="sRGB">
<feFlood flood-opacity="0" result="BackgroundImageFix"/>
<feBlend mode="normal" in="SourceGraphic" in2="BackgroundImageFix" result="shape"/>
<feColorMatrix in="SourceAlpha" type="matrix" values="0 0 0 0 0 0 0 0 0 0 0 0 0 0 0 0 0 0 127 0" result="hardAlpha"/>
<feOffset dy="24.4585"/>
<feComposite in2="hardAlpha" operator="arithmetic" k2="-1" k3="1"/>
<feColorMatrix type="matrix" values="0 0 0 0 0 0 0 0 0 0 0 0 0 0 0 0 0 0 0.12 0"/>
<feBlend mode="normal" in2="shape" result="effect1_innerShadow_52_2"/>
</filter>
<filter id="filter2_f_52_2" x="139.296" y="45.2785" width="620.368" height="739.314" filterUnits="userSpaceOnUse" color-interpolation-filters="sRGB">
<feFlood flood-opacity="0" result="BackgroundImageFix"/>
<feBlend mode="normal" in="SourceGraphic" in2="BackgroundImageFix" result="shape"/>
<feGaussianBlur stdDeviation="0.611462" result="effect1_foregroundBlur_52_2"/>
</filter>
<filter id="filter3_f_52_2" x="173.928" y="79.2602" width="551.102" height="419.17" filterUnits="userSpaceOnUse" color-interpolation-filters="sRGB">
<feFlood flood-opacity="0" result="BackgroundImageFix"/>
<feBlend mode="normal" in="SourceGraphic" in2="BackgroundImageFix" result="shape"/>
<feGaussianBlur stdDeviation="0.611462" result="effect1_foregroundBlur_52_2"/>
</filter>
<filter id="filter4_i_52_2" x="198.848" y="640.289" width="88.7161" height="87.0718" filterUnits="userSpaceOnUse" color-interpolation-filters="sRGB">
<feFlood flood-opacity="0" result="BackgroundImageFix"/>
<feBlend mode="normal" in="SourceGraphic" in2="BackgroundImageFix" result="shape"/>
<feColorMatrix in="SourceAlpha" type="matrix" values="0 0 0 0 0 0 0 0 0 0 0 0 0 0 0 0 0 0 127 0" result="hardAlpha"/>
<feMorphology radius="1.22292" operator="erode" in="SourceAlpha" result="effect1_innerShadow_52_2"/>
<feOffset dx="1.22292" dy="1.22292"/>
<feGaussianBlur stdDeviation="1.22292"/>
<feComposite in2="hardAlpha" operator="arithmetic" k2="-1" k3="1"/>
<feColorMatrix type="matrix" values="0 0 0 0 0 0 0 0 0 0 0 0 0 0 0 0 0 0 0.2 0"/>
<feBlend mode="normal" in2="shape" result="effect1_innerShadow_52_2"/>
</filter>
<filter id="filter5_dd_52_2" x="197.297" y="640.937" width="90.5953" height="89.4444" filterUnits="userSpaceOnUse" color-interpolation-filters="sRGB">
<feFlood flood-opacity="0" result="BackgroundImageFix"/>
<feColorMatrix in="SourceAlpha" type="matrix" values="0 0 0 0 0 0 0 0 0 0 0 0 0 0 0 0 0 0 127 0" result="hardAlpha"/>
<feOffset dy="0.893266"/>
<feGaussianBlur stdDeviation="0.893266"/>
<feColorMatrix type="matrix" values="0 0 0 0 0 0 0 0 0 0 0 0 0 0 0 0 0 0 0.3 0"/>
<feBlend mode="normal" in2="BackgroundImageFix" result="effect1_dropShadow_52_2"/>
<feColorMatrix in="SourceAlpha" type="matrix" values="0 0 0 0 0 0 0 0 0 0 0 0 0 0 0 0 0 0 127 0" result="hardAlpha"/>
<feOffset dy="2.44585"/>
<feGaussianBlur stdDeviation="7.33754"/>
<feColorMatrix type="matrix" values="0 0 0 0 0 0 0 0 0 0 0 0 0 0 0 0 0 0 0.16 0"/>
<feBlend mode="normal" in2="effect1_dropShadow_52_2" result="effect2_dropShadow_52_2"/>
<feBlend mode="normal" in="SourceGraphic" in2="effect2_dropShadow_52_2" result="shape"/>
</filter>
<filter id="filter6_f_52_2" x="206.432" y="647.614" width="48.2531" height="46.7206" filterUnits="userSpaceOnUse" color-interpolation-filters="sRGB">
<feFlood flood-opacity="0" result="BackgroundImageFix"/>
<feBlend mode="normal" in="SourceGraphic" in2="BackgroundImageFix" result="shape"/>
<feGaussianBlur stdDeviation="5.87003" result="effect1_foregroundBlur_52_2"/>
</filter>
<filter id="filter7_i_52_2" x="601.681" y="611.672" width="89.3159" height="16.754" filterUnits="userSpaceOnUse" color-interpolation-filters="sRGB">
<feFlood flood-opacity="0" result="BackgroundImageFix"/>
<feBlend mode="normal" in="SourceGraphic" in2="BackgroundImageFix" result="shape"/>
<feColorMatrix in="SourceAlpha" type="matrix" values="0 0 0 0 0 0 0 0 0 0 0 0 0 0 0 0 0 0 127 0" result="hardAlpha"/>
<feOffset dy="2.44585"/>
<feGaussianBlur stdDeviation="1.22292"/>
<feComposite in2="hardAlpha" operator="arithmetic" k2="-1" k3="1"/>
<feColorMatrix type="matrix" values="0 0 0 0 0 0 0 0 0 0 0 0 0 0 0 0 0 0 0.2 0"/>
<feBlend mode="normal" in2="shape" result="effect1_innerShadow_52_2"/>
</filter>
<linearGradient id="paint0_linear_52_2" x1="449.544" y1="606.333" x2="449.544" y2="898" gradientUnits="userSpaceOnUse">
<stop stop-color="#8F8F8F"/>
</linearGradient>
<linearGradient id="paint1_linear_52_2" x1="449.48" y1="0" x2="449.48" y2="829.871" gradientUnits="userSpaceOnUse">
<stop stop-color="#FBF9F8"/>
<stop offset="0.0727187" stop-color="#E1E1E1"/>
<stop offset="0.473103" stop-color="#BABABA"/>
<stop offset="0.929747" stop-color="#CACACA"/>
<stop offset="1" stop-color="#9D9D9D"/>
</linearGradient>
<linearGradient id="paint2_linear_52_2" x1="450.391" y1="46.5015" x2="449.513" y2="783.37" gradientUnits="userSpaceOnUse">
<stop stop-color="#F7F7F7"/>
<stop offset="0.171789" stop-color="#D3D3D3"/>
<stop offset="1" stop-color="#D5D5D5"/>
</linearGradient>
<linearGradient id="paint3_linear_52_2" x1="449.479" y1="46.5015" x2="449.479" y2="783.37" gradientUnits="userSpaceOnUse">
<stop stop-color="white" stop-opacity="0.6"/>
<stop offset="0.507222" stop-color="white" stop-opacity="0.1"/>
<stop offset="1" stop-color="white" stop-opacity="0"/>
</linearGradient>
<linearGradient id="paint4_linear_52_2" x1="449.479" y1="80.4832" x2="449.479" y2="497.207" gradientUnits="userSpaceOnUse">
<stop stop-color="#FFF0E3" stop-opacity="0.6"/>
<stop offset="1" stop-color="#FFF0E3" stop-opacity="0.5"/>
</linearGradient>
<linearGradient id="paint5_linear_52_2" x1="685.529" y1="462.331" x2="203.88" y2="87.7639" gradientUnits="userSpaceOnUse">
<stop stop-color="#1E201D"/>
<stop offset="1" stop-color="#30332E"/>
</linearGradient>
<radialGradient id="paint6_radial_52_2" cx="0" cy="0" r="1" gradientUnits="userSpaceOnUse" gradientTransform="translate(449.985 131.626) rotate(90) scale(301.63 261.275)">
<stop stop-color="#E4EEF5"/>
<stop offset="1" stop-color="#ACC3D4"/>
</radialGradient>
<linearGradient id="paint7_linear_52_2" x1="242.595" y1="640.289" x2="242.595" y2="726.137" gradientUnits="userSpaceOnUse">
<stop stop-color="#D9D9D9"/>
<stop offset="1" stop-color="#D6D6D6"/>
</linearGradient>
<linearGradient id="paint8_linear_52_2" x1="680.692" y1="658.314" x2="651.908" y2="543.653" gradientUnits="userSpaceOnUse">
<stop stop-color="#1E201D"/>
<stop offset="1" stop-color="#30332E"/>
</linearGradient>
<linearGradient id="paint9_linear_52_2" x1="532.416" y1="613.461" x2="532.416" y2="650.126" gradientUnits="userSpaceOnUse">
<stop stop-color="#66594A" stop-opacity="0.5"/>
<stop offset="1" stop-color="white" stop-opacity="0.3"/>
</linearGradient>
<linearGradient id="paint10_linear_52_2" x1="646.339" y1="611.672" x2="646.339" y2="625.98" gradientUnits="userSpaceOnUse">
<stop stop-color="#9A9A9A"/>
<stop offset="1" stop-color="#C1C1C1"/>
</linearGradient>
<clipPath id="clip0_52_2">
<rect width="898" height="898" fill="white"/>
</clipPath>
</defs>
</svg>
